<?xml version="1.0" standalone="no"?>
<!DOCTYPE svg PUBLIC "-//W3C//DTD SVG 20010904//EN"
 "http://www.w3.org/TR/2001/REC-SVG-20010904/DTD/svg10.dtd">
<svg version="1.0" xmlns="http://www.w3.org/2000/svg"
 width="522.000000pt" height="526.000000pt" viewBox="0 0 522.000000 526.000000"
 preserveAspectRatio="xMidYMid meet">

<g transform="translate(0.000000,526.000000) scale(0.100000,-0.100000)"
fill="#000000" stroke="none">
<path d="M2475 5250 c-638 -82 -1059 -726 -879 -1346 50 -174 135 -316 268
-450 134 -133 276 -218 451 -269 499 -144 1025 92 1250 562 235 490 49 1092
-420 1364 -195 113 -452 167 -670 139z"/>
<path d="M5186 5149 c-46 -210 -148 -494 -254 -704 -389 -777 -1071 -1324
-1847 -1480 -182 -37 -272 -45 -480 -45 -487 0 -935 137 -1349 414 -166 111
-256 186 -412 341 -369 367 -640 838 -778 1355 -56 208 -56 207 -50 80 49
-1060 585 -1980 1444 -2478 11 -7 2 -16 -35 -37 -438 -253 -820 -663 -1065
-1146 -209 -411 -317 -830 -344 -1329 l-5 -95 35 130 c153 575 408 1030 793
1416 418 417 919 671 1471 745 144 19 457 18 612 -2 815 -105 1572 -661 1985
-1459 122 -236 200 -440 269 -705 l33 -125 -5 115 c-16 327 -88 683 -199 987
-57 154 -215 466 -309 607 -232 348 -512 623 -836 821 -52 32 -99 62 -103 65
-5 4 18 22 50 40 219 123 479 342 667 561 429 501 676 1119 727 1816 13 188 9
220 -15 112z"/>
</g>
</svg>
